<?xml version="1.0" encoding="utf-8"?>
<!-- Generator: Adobe Illustrator 27.0.0, SVG Export Plug-In . SVG Version: 6.00 Build 0)  -->
<svg version="1.1" id="图层_1" xmlns="http://www.w3.org/2000/svg" xmlns:xlink="http://www.w3.org/1999/xlink" x="0px" y="0px"
	 viewBox="0 0 841.89 256.89" style="enable-background:new 0 0 841.89 256.89;" xml:space="preserve">
<style type="text/css">
	.st0{fill:#7A797F;}
	.st1{fill:#9F9E9F;}
</style>
<g>
	<g>
		<path class="st0" d="M294.98,48.3v30.09h-32.41V48.3H294.98z M262.57,92.97h32.41v123.15h-32.41V92.97z"/>
		<path class="st0" d="M432.71,154.55v25.23h-18.29v36.34h-32.41v-36.34H317.2l0-28.01l60.42-100.01h36.81v102.78H432.71z
			 M341.17,154.63l40.84-0.08c0-20.21,0.08-35.17,0.25-44.89c0.17-9.72,0.34-18.28,0.5-25.68L341.17,154.63z"/>
		<path class="st0" d="M491.05,59.64v33.33h20.14v23.15h-20.14v66.9c0,4.01,0.69,6.68,2.08,7.99c1.39,1.31,5.17,1.97,11.34,1.97
			h6.71v24.08l-15.28,0.46h-4.17c-13.12,0-22.15-2.39-27.08-7.18c-4.01-3.86-6.02-10.34-6.02-19.45v-74.77h-16.67V92.97h16.67V59.64
			H491.05z"/>
	</g>
</g>
<g>
	<g>
		<path class="st0" d="M557.06,199.46v16.67h-17.13v-16.67H557.06z"/>
		<path class="st0" d="M607.87,193.98h16.22c-0.46,5.25-2.36,9.97-5.71,14.16c-5.02,6.4-12.37,9.59-22.04,9.59
			c-10.28,0-17.81-3.43-22.61-10.28c-3.65-5.25-5.48-11.91-5.48-19.98c0-10.35,2.28-18.42,6.85-24.21
			c4.95-6.32,12.37-9.48,22.27-9.48c6.62,0,12.29,1.48,17.01,4.45c6.55,4.11,9.82,10.39,9.82,18.84h-16.21
			c-0.61-3.43-1.98-6.01-4.11-7.76c-1.75-1.37-3.92-2.06-6.51-2.06c-4.49,0-7.84,1.98-10.05,5.94c-1.75,3.12-2.63,7-2.63,11.65
			c0,7.23,1.01,12.33,3.03,15.3c2.02,2.97,5.12,4.45,9.31,4.45c3.58,0,6.39-1.41,8.45-4.23
			C607.07,198.16,607.87,196.03,607.87,193.98z"/>
		<path class="st0" d="M693.86,185.76c0,10.43-3.12,18.5-9.36,24.21c-5.63,5.18-12.87,7.77-21.7,7.77c-8.83,0-16.06-2.59-21.7-7.77
			c-6.24-5.71-9.36-13.78-9.36-24.21c0-10.43,3.12-18.5,9.36-24.21c5.63-5.18,12.86-7.77,21.7-7.77c8.83,0,16.06,2.59,21.7,7.77
			C690.73,167.26,693.86,175.33,693.86,185.76z M677.41,185.76c0-5.02-0.88-9.06-2.63-12.1c-2.44-4.26-6.43-6.39-11.99-6.39
			c-5.48,0-9.44,2.09-11.88,6.28c-1.83,3.2-2.74,7.27-2.74,12.22c0,5.02,0.87,9.06,2.63,12.1c2.44,4.26,6.43,6.39,11.99,6.39
			c5.48,0,9.44-2.09,11.88-6.28C676.5,194.78,677.41,190.7,677.41,185.76z"/>
		<path class="st0" d="M791.95,174.11v42.02h-15.99v-36.88c0-4.26-0.78-7.33-2.34-9.19c-1.56-1.86-3.67-2.8-6.34-2.8
			c-3.81,0-6.57,1.1-8.28,3.31c-1.71,2.21-2.57,5.25-2.57,9.13v36.43h-15.99v-36.54c0-3.88-0.38-6.58-1.14-8.11
			c-1.37-2.82-4.19-4.23-8.45-4.23c-3.5,0-6.03,1.07-7.59,3.2c-1.56,2.13-2.34,5.02-2.34,8.68v37h-15.99v-60.75h15.3v8.91
			c1.67-2.97,3.5-5.21,5.48-6.74c3.2-2.51,7.19-3.77,11.99-3.77c4.19,0,7.5,0.76,9.93,2.28c2.44,1.52,4.76,4,6.97,7.42
			c1.9-2.74,3.62-4.72,5.14-5.94c3.12-2.51,6.81-3.77,11.08-3.77c6.17,0,11.23,1.77,15.19,5.31
			C789.97,162.63,791.95,167.64,791.95,174.11z"/>
	</g>
</g>
<path class="st1" d="M740.27,88.44c0-8.33-0.03-16.65,0.02-24.98c0.01-2.89,0.72-5.6,2.57-7.93c2.36-2.96,5.4-4.71,9.19-4.8
	c7.91-0.2,15.82-0.19,23.72,0c3.34,0.08,6.95,3.22,8.03,6.67c0.53,1.69,0.9,3.41,0.93,5.19c0.01,0.66-0.19,0.92-0.87,0.91
	c-2.98-0.02-5.96-0.02-8.93,0c-0.57,0-0.77-0.2-0.95-0.74c-0.6-1.79-1.6-2.55-3.51-2.56c-5.12-0.03-10.24-0.19-15.35,0.05
	c-3.65,0.17-4.38,1.2-4.55,4.34c-0.24,4.36-0.36,8.73,0.07,13.09c0.22,2.29,1.52,3.38,3.82,3.4c6.09,0.03,12.19-0.02,18.28,0.04
	c2.68,0.03,5.25,0.65,7.53,2.16c3.41,2.27,4.78,5.77,4.91,9.56c0.24,7.53,0.12,15.07,0.06,22.6c-0.04,5.05-5.28,10.19-10.68,10.3
	c-7.26,0.14-14.52,0.2-21.77-0.02c-5.64-0.17-9.76-2.98-11.89-8.35c-0.57-1.44-0.64-2.98-0.64-4.52c0.01-8.14,0-16.28,0-24.42
	C740.26,88.44,740.27,88.44,740.27,88.44z M762.49,90.84C762.49,90.84,762.49,90.84,762.49,90.84c-2.6-0.01-5.21-0.03-7.81,0
	c-2.41,0.03-3.82,1.17-4.03,3.53c-0.5,5.75-0.35,11.52-0.11,17.27c0.16,3.75,1.41,4.6,5.18,4.6c4.32,0,8.65-0.02,12.97,0.02
	c1.13,0.01,2.23-0.14,3.32-0.32c1.99-0.33,2.95-1.51,2.95-3.59c0.01-5.58,0.02-11.16-0.01-16.74c-0.01-3.26-1.48-4.72-4.8-4.77
	C767.61,90.81,765.05,90.84,762.49,90.84z"/>
<path class="st1" d="M674.96,88.4c0,8.24,0,16.47,0,24.71c0,1.98-0.36,3.9-1.14,5.7c-1.93,4.5-5.65,6.74-10.28,6.93
	c-6.92,0.28-13.87,0.19-20.8,0.02c-4.77-0.11-8.75-2.02-11.32-6.26c-1.24-2.05-1.62-4.35-1.62-6.69
	c-0.03-16.28-0.09-32.57,0.03-48.85c0.04-5.65,2.61-9.99,7.93-12.39c1.32-0.59,2.75-0.84,4.21-0.84c6.66,0.01,13.31,0.01,19.97,0
	c8.48-0.01,12.84,5.74,12.99,13.11C675.08,72.02,674.96,80.21,674.96,88.4z M664.68,88.4c0-7.82,0.02-15.63-0.01-23.45
	c-0.01-3.21-1.29-4.51-4.49-4.54c-5.16-0.04-10.33-0.04-15.49,0c-3.36,0.03-4.6,1.35-4.6,4.69c0,13.17,0,26.33,0,39.5
	c0,2.33-0.04,4.65,0.02,6.98c0.06,2.62,1.63,4.43,4.01,4.46c5.54,0.07,11.07,0.08,16.61,0c2.66-0.04,3.85-1.39,3.94-4.05
	c0.02-0.65,0.02-1.3,0.02-1.95C664.68,102.82,664.68,95.61,664.68,88.4z"/>
<path class="st1" d="M602.36,125.51c-5.07,0-10.15-0.09-15.22,0.02c-8.39,0.18-12.57-6.43-12.66-12.81
	c-0.1-6.74-0.05-13.49-0.02-20.24c0.03-6.47,4.93-11.36,11.44-11.7c5.86-0.31,11.72-0.07,17.58-0.17c0.84-0.02,1.66-0.05,2.5-0.21
	c2.22-0.45,3.43-1.42,3.52-3.66c0.16-4.18,0.19-8.37-0.03-12.55c-0.14-2.7-1.53-3.67-4.59-3.72c-3.35-0.06-6.7-0.02-10.05-0.02
	c-5.86,0-11.73-0.03-17.59,0.03c-1.11,0.01-1.44-0.29-1.41-1.4c0.09-2.42,0.06-4.84,0.01-7.26c-0.02-0.84,0.22-1.13,1.1-1.13
	c10.38,0.03,20.76-0.16,31.13,0.08c6.5,0.15,11.83,4.79,11.69,11.83c-0.11,5.12,0,10.23-0.03,15.35
	c-0.05,7.48-4.43,11.21-11.13,12.07c-4.95,0.64-9.94,0.13-14.91,0.25c-1.67,0.04-3.35-0.03-5.02,0.09c-2.41,0.17-3.9,1.81-3.9,4.23
	c-0.01,5.54-0.02,11.07,0,16.61c0.01,3.33,1.32,4.59,4.66,4.59c9.63,0,19.27,0,28.9,0c1.89,0,1.89,0,1.89,1.84
	c0,2.19-0.04,4.37,0.02,6.56c0.03,1.04-0.34,1.37-1.37,1.36c-5.49-0.04-10.98-0.02-16.47-0.02
	C602.36,125.51,602.36,125.51,602.36,125.51z"/>
<path class="st1" d="M713.25,95.42c0,9.44,0,18.89,0,28.33c0,1.77,0,1.77-1.83,1.78c-2.28,0-4.56-0.06-6.84,0.02
	c-1.14,0.04-1.51-0.27-1.49-1.46c0.07-4.42,0.03-8.84,0.03-13.26c0-12.93,0-25.87,0-38.8c0-2-0.19-4-0.56-5.96
	c-0.6-3.2-3.28-5.46-6.57-5.62c-1.86-0.09-3.72-0.07-5.58-0.05c-0.99,0.01-1.45-0.35-1.43-1.39c0.04-2.37,0.01-4.74,0.01-7.12
	c0-0.57-0.03-1.2,0.79-1.2c4.88,0,9.8-0.32,14.51,1.27c4.35,1.47,6.93,4.69,8.09,9.06c0.71,2.71,0.9,5.49,0.89,8.29
	C713.23,78.02,713.25,86.72,713.25,95.42z"/>
<g>
	<g>
		<path class="st0" d="M219.09,57.78c0,6.69-1.39,15.91-4.16,27.66c-1.31,2.78-2.86,6.12-4.65,10.04c-0.49,2.29-1.06,4.08-1.71,5.38
			c-0.65,1.31-2.61,3.1-5.87,5.38c-3.27,2.29-5.55,3.43-6.85,3.43c-5.38,0-11.42-0.98-18.11-2.94c-8.81-2.77-13.63-4.24-14.44-4.41
			c-0.98,9.95-2.69,24.23-5.14,42.83c-0.82,5.38-2.37,11.42-4.65,18.11c-1.63,5.38-3.35,10.69-5.14,15.91
			c-0.98,4.41-3.1,10.93-6.36,19.58c-0.98,1.63-3.59,4.49-7.83,8.57c-4.9,4.41-8.32,6.61-10.28,6.61c-3.1,0-8.16-1.63-15.17-4.89
			c-4.73-2.28-9.46-4.57-14.2-6.85c-5.71-2.28-8.41-5.14-8.08-8.57l17.87-100.1c-2.12-3.1-4.77-5.26-7.95-6.49
			c-3.18-1.22-6.24-2.33-9.18-3.3c-5.39-1.47-10.77-2.94-16.16-4.41c-8.32-2.45-12.48-5.06-12.48-7.83c0-0.49,0.65-2.45,1.96-5.87
			c1.47-4.24,2.45-7.34,2.94-9.3c0.81-4.73,2.45-11.75,4.9-21.05c0.33-0.98,2.61-2.41,6.85-4.28c4.24-1.87,6.77-2.81,7.59-2.81
			c10.12,0,18.36,0.24,24.72,0.73c2.12,0.16,9.38,1.8,21.78,4.9c14.52,3.76,24.64,6.2,30.35,7.34c7.5,1.31,19.17,3.67,35,7.1
			c5.22,0.82,12.56,2.45,22.03,4.9C218.27,53.62,219.09,55.17,219.09,57.78z M77.38,39.66v-2.45c-2.45,0.82-4,1.63-4.65,2.45
			c-1.31,8.16-3.18,16.64-5.63,25.45c1.63-0.81,3.34-2.04,5.14-3.67c1.14-2.94,2.36-7.26,3.67-12.97
			C77.05,43.42,77.54,40.48,77.38,39.66z M211.99,63.65v-5.63c-5.22-0.49-12.4-1.71-21.54-3.67c-4.73-1.63-9.46-2.85-14.2-3.67
			c-9.63-1.63-24.72-4.9-45.28-9.79C116.45,37.3,105.2,35.5,97.2,35.5H84.23c-0.49,2.29-1.55,6.53-3.18,12.73
			c-1.63,5.38-2.45,8.32-2.45,8.81v4.16c7.34,0.33,19.5,3.59,36.47,9.79c2.61,0.49,5.14,1.06,7.59,1.71
			c3.43,0.82,5.14,2.29,5.14,4.41c0,0.33-0.45,2.16-1.35,5.51c-0.9,3.35-1.35,5.59-1.35,6.73c-2.61,26.27-8.24,57.93-16.89,94.96
			c6.52,2.29,15.99,5.47,28.39,9.55c4.08-11.58,9.06-28.55,14.93-50.91c0.98-5.71,2.45-19.34,4.41-40.87
			c0.49-5.54,0.65-9.46,0.49-11.75c0-0.16-0.12-0.98-0.37-2.45c-0.24-1.47-0.37-2.45-0.37-2.94c0.16-2.12,1.63-3.18,4.41-3.18
			c0.33,0,1.63,0.37,3.92,1.1c2.28,0.73,3.83,1.1,4.65,1.1c7.5,0,19.99,1.71,37.45,5.14C210.03,76.54,211.99,68.06,211.99,63.65z
			 M118.74,87.15v-1.96c-0.64,0.33-3.12,1.64-7.44,3.94c-0.17,0.98-2.43,12.72-6.78,35.21c-2.44,15.5-6.18,37.37-11.21,65.6
			c2.44-1.63,5.13-3.92,8.07-6.85c2.94-9.3,5.87-22.68,8.81-40.14C116.05,108.69,118.9,90.08,118.74,87.15z"/>
	</g>
</g>
</svg>
